<svg width="690" height="690" viewBox="0 0 690 690" fill="none" xmlns="http://www.w3.org/2000/svg">
<g filter="url(#filter0_d_214_1200)">
<path d="M354.903 271.985L345.144 274.955L345.144 274.955L354.903 271.985ZM361.297 292.992L351.538 295.963L351.878 297.081L352.463 298.093L361.297 292.992ZM378.579 322.927L369.745 328.027L371.758 331.514L375.609 332.686L378.579 322.927ZM417.776 334.858L414.805 344.617L414.805 344.617L417.776 334.858ZM450.705 344.88L453.676 354.639L485.74 344.88L453.676 335.121L450.705 344.88ZM417.776 354.903L420.746 364.662L420.746 364.662L417.776 354.903ZM400.139 360.27L397.169 350.511L384.884 354.249L391.305 365.37L400.139 360.27ZM409.905 377.184L418.739 372.084L418.739 372.083L409.905 377.184ZM414.441 385.041V395.242H432.109L423.275 379.941L414.441 385.041ZM364.865 385.041V374.84H357.307L355.106 382.071L364.865 385.041ZM354.903 417.776L364.662 420.746L364.662 420.746L354.903 417.776ZM344.88 450.705L335.121 453.676L344.88 485.74L354.639 453.676L344.88 450.705ZM334.858 417.776L325.099 420.746L325.099 420.746L334.858 417.776ZM324.895 385.041L334.654 382.071L332.453 374.84H324.895V385.041ZM275.32 385.041L266.486 379.94L257.65 395.242H275.32V385.041ZM279.857 377.184L288.691 382.285L288.691 382.284L279.857 377.184ZM289.621 360.271L298.456 365.371L304.876 354.251L292.592 350.512L289.621 360.271ZM271.985 354.903L274.955 345.144L274.955 345.144L271.985 354.903ZM239.055 344.88L236.085 335.121L204.021 344.88L236.085 354.639L239.055 344.88ZM271.985 334.858L274.955 344.617L274.955 344.617L271.985 334.858ZM311.182 322.926L314.152 332.685L318.004 331.513L320.016 328.026L311.182 322.926ZM328.461 292.996L337.296 298.097L337.88 297.085L338.22 295.967L328.461 292.996ZM334.858 271.985L344.617 274.956L344.617 274.955L334.858 271.985ZM344.88 239.055L354.639 236.085L344.88 204.021L335.121 236.085L344.88 239.055ZM354.903 271.985L345.144 274.955L351.538 295.963L361.297 292.992L371.056 290.022L364.662 269.014L354.903 271.985ZM361.297 292.992L352.463 298.093L369.745 328.027L378.579 322.927L387.414 317.827L370.132 287.892L361.297 292.992ZM378.579 322.927L375.609 332.686L414.805 344.617L417.776 334.858L420.746 325.099L381.55 313.168L378.579 322.927ZM417.776 334.858L414.805 344.617L447.735 354.639L450.705 344.88L453.676 335.121L420.746 325.099L417.776 334.858ZM450.705 344.88L447.735 335.121L414.805 345.144L417.776 354.903L420.746 364.662L453.676 354.639L450.705 344.88ZM417.776 354.903L414.806 345.144L397.169 350.511L400.139 360.27L403.109 370.029L420.746 364.662L417.776 354.903ZM400.139 360.27L391.305 365.37L401.07 382.285L409.905 377.184L418.739 372.083L408.973 355.169L400.139 360.27ZM409.905 377.184L401.07 382.284L405.606 390.142L414.441 385.041L423.275 379.941L418.739 372.084L409.905 377.184ZM414.441 385.041V374.84H364.865V385.041V395.242H414.441V385.041ZM364.865 385.041L355.106 382.071L345.144 414.805L354.903 417.776L364.662 420.746L374.625 388.012L364.865 385.041ZM354.903 417.776L345.144 414.805L335.121 447.735L344.88 450.705L354.639 453.676L364.662 420.746L354.903 417.776ZM344.88 450.705L354.639 447.735L344.617 414.805L334.858 417.776L325.099 420.746L335.121 453.676L344.88 450.705ZM334.858 417.776L344.617 414.805L334.654 382.071L324.895 385.041L315.136 388.012L325.099 420.746L334.858 417.776ZM324.895 385.041V374.84H275.32V385.041V395.242H324.895V385.041ZM275.32 385.041L284.154 390.142L288.691 382.285L279.857 377.184L271.023 372.083L266.486 379.94L275.32 385.041ZM279.857 377.184L288.691 382.284L298.456 365.371L289.621 360.271L280.787 355.17L271.022 372.083L279.857 377.184ZM289.621 360.271L292.592 350.512L274.955 345.144L271.985 354.903L269.014 364.662L286.651 370.03L289.621 360.271ZM271.985 354.903L274.955 345.144L242.025 335.121L239.055 344.88L236.085 354.639L269.014 364.662L271.985 354.903ZM239.055 344.88L242.025 354.639L274.955 344.617L271.985 334.858L269.014 325.099L236.085 335.121L239.055 344.88ZM271.985 334.858L274.955 344.617L314.152 332.685L311.182 322.926L308.211 313.167L269.014 325.099L271.985 334.858ZM311.182 322.926L320.016 328.026L337.296 298.097L328.461 292.996L319.627 287.896L302.347 317.826L311.182 322.926ZM328.461 292.996L338.22 295.967L344.617 274.956L334.858 271.985L325.099 269.014L318.702 290.026L328.461 292.996ZM334.858 271.985L344.617 274.955L354.639 242.025L344.88 239.055L335.121 236.085L325.099 269.014L334.858 271.985ZM344.88 239.055L335.121 242.025L345.144 274.955L354.903 271.985L364.662 269.014L354.639 236.085L344.88 239.055Z" fill="white"/>
</g>
<defs>
<filter id="filter0_d_214_1200" x="-3.05176e-05" y="0" width="689.76" height="689.76" filterUnits="userSpaceOnUse" color-interpolation-filters="sRGB">
<feFlood flood-opacity="0" result="BackgroundImageFix"/>
<feColorMatrix in="SourceAlpha" type="matrix" values="0 0 0 0 0 0 0 0 0 0 0 0 0 0 0 0 0 0 127 0" result="hardAlpha"/>
<feOffset/>
<feGaussianBlur stdDeviation="102.01"/>
<feColorMatrix type="matrix" values="0 0 0 0 1 0 0 0 0 1 0 0 0 0 1 0 0 0 1 0"/>
<feBlend mode="normal" in2="BackgroundImageFix" result="effect1_dropShadow_214_1200"/>
<feBlend mode="normal" in="SourceGraphic" in2="effect1_dropShadow_214_1200" result="shape"/>
</filter>
</defs>
</svg>
