<svg width="1147" height="383" viewBox="0 0 1147 383" fill="none" xmlns="http://www.w3.org/2000/svg">
<path d="M1014.1 282.809C1017.76 284.87 1021.12 286.724 1024.16 288.373C1027.21 290.021 1030.26 291.566 1033.31 293.009C1036.56 294.245 1040.02 295.378 1043.68 296.409C1047.34 297.439 1051.5 298.366 1056.18 299.19C1064.72 294.863 1071.52 292.082 1076.61 290.845C1081.69 289.403 1085.04 288.166 1086.67 287.136C1087.07 267.149 1087.38 246.234 1087.58 224.393C1087.99 202.345 1088.19 181.43 1088.19 161.649C1088.19 156.498 1088.19 151.45 1088.19 146.504C1088.19 141.353 1087.99 136.408 1087.58 131.668C1083.92 129.608 1080.57 127.753 1077.52 126.105C1074.47 124.457 1071.32 123.014 1068.07 121.778C1065.02 120.335 1061.67 119.099 1058.01 118.069C1054.55 117.039 1050.49 116.111 1045.81 115.287C1037.28 119.614 1030.36 122.602 1025.08 124.25C1020 125.899 1016.64 127.238 1015.02 128.269C1014.81 133.42 1014.61 139.705 1014.41 147.122C1014.2 154.334 1014 162.164 1013.8 170.613C1013.8 179.061 1013.8 187.921 1013.8 197.194C1013.8 206.466 1013.8 215.532 1013.8 224.393C1013.8 233.665 1013.8 243.659 1013.8 254.374C1014 265.088 1014.1 274.567 1014.1 282.809ZM959.223 205.848C961.865 202.963 964.202 199.357 966.235 195.03C968.471 190.497 970.402 185.655 972.028 180.503C973.654 175.146 974.874 169.582 975.687 163.813C976.703 158.043 977.211 152.377 977.211 146.813C977.211 137.335 975.788 128.372 972.943 119.923C970.097 111.475 965.422 105.294 958.918 101.378C965.219 100.966 972.028 100.142 979.346 98.9058C986.866 97.6695 994.387 96.1241 1001.91 94.2696C1009.43 92.4151 1016.64 90.4576 1023.55 88.3971C1030.47 86.1305 1036.56 83.7609 1041.85 81.2882C1048.56 82.3185 1056.48 84.0699 1065.63 86.5426C1074.98 88.8092 1084.23 91.1788 1093.38 93.6515C1102.52 96.1241 1110.86 98.3907 1118.38 100.451C1126.1 102.512 1131.69 103.645 1135.15 103.851C1132.3 108.59 1130.27 114.566 1129.05 121.778C1127.83 128.784 1127.22 136.099 1127.22 143.723C1127.22 155.262 1128.64 166.801 1131.49 178.34C1134.33 189.673 1138.4 198.945 1143.68 206.157C1138.6 212.545 1134.43 221.302 1131.18 232.429C1127.93 243.35 1126.3 254.683 1126.3 266.428C1126.3 275.906 1127.73 284.767 1130.57 293.009C1133.42 301.251 1138.09 307.433 1144.6 311.554C1138.3 311.966 1131.28 312.79 1123.56 314.026C1116.04 315.263 1108.42 316.808 1100.69 318.662C1093.17 320.517 1085.85 322.474 1078.74 324.535C1071.63 326.802 1065.53 329.171 1060.45 331.644C1053.74 330.82 1045.81 329.274 1036.67 327.008C1027.52 324.741 1018.37 322.371 1009.23 319.899C1000.28 317.426 992.049 315.16 984.529 313.099C977.008 310.832 971.622 309.493 968.369 309.081C971.215 306.402 973.146 302.075 974.162 296.1C975.382 289.918 975.992 282.912 975.992 275.082C975.992 267.87 975.484 260.349 974.467 252.519C973.654 244.483 972.435 237.168 970.809 230.574C969.386 223.775 967.658 218.108 965.625 213.575C963.593 209.042 961.459 206.466 959.223 205.848Z" fill="white"/>
<path d="M850.178 125.487C858.918 119.717 866.744 113.948 873.655 108.178C880.566 102.409 887.68 95.609 894.997 87.7789C898.453 91.0758 901.603 94.0636 904.449 96.7423C907.295 99.2149 910.14 101.482 912.986 103.542C916.035 105.603 919.186 107.663 922.438 109.724C925.69 111.578 929.45 113.536 933.719 115.596C932.906 118.481 932.194 121.572 931.584 124.869C931.178 127.959 930.771 131.978 930.365 136.923C930.162 141.868 929.958 147.947 929.755 155.159C929.552 162.37 929.45 171.334 929.45 182.049C929.45 191.115 929.45 198.636 929.45 204.612C929.654 210.381 929.857 215.12 930.06 218.829C930.263 222.538 930.568 225.629 930.975 228.102C931.381 230.368 931.788 232.532 932.194 234.592C928.129 236.035 923.962 237.992 919.694 240.465C915.628 242.938 911.462 245.719 907.193 248.81C903.128 251.901 899.266 255.095 895.607 258.392C891.948 261.689 888.696 264.882 885.851 267.973L884.021 266.119C885.241 261.998 886.359 256.846 887.375 250.665C888.391 244.689 889.204 238.714 889.814 232.738C890.424 226.556 890.932 220.89 891.339 215.738C891.745 210.587 891.949 206.878 891.949 204.612C891.949 192.866 891.847 181.121 891.644 169.376C891.644 157.631 891.644 145.886 891.644 134.141L887.68 129.814L850.178 146.813V213.266C850.178 226.247 852.922 233.768 858.41 235.829V240.465H802.31V235.829C804.749 234.798 806.68 232.738 808.103 229.647C809.729 226.35 810.542 221.817 810.542 216.048V108.178L799.261 103.233V99.8331C806.375 98.8028 814.099 97.4635 822.433 95.815C830.767 93.9606 838.186 92.2091 844.69 90.5607L850.178 99.8331V125.487Z" fill="white"/>
<path d="M720.923 250.356C717.061 247.471 712.284 244.792 706.593 242.32C700.901 239.847 695.007 237.786 688.909 236.138C683.014 234.283 677.221 232.841 671.53 231.811C666.042 230.781 661.469 230.265 657.81 230.265C659.436 227.587 660.859 223.878 662.078 219.139C663.298 214.193 664.213 208.939 664.822 203.375C665.635 197.606 666.144 191.733 666.347 185.758C666.753 179.782 666.957 174.322 666.957 169.376C666.957 156.807 666.144 146.401 664.518 138.159C663.095 129.711 661.672 123.117 660.249 118.378C668.989 116.73 676.916 113.536 684.031 108.797C691.348 104.057 698.564 98.0818 705.678 90.8699C714.012 92.5183 724.276 93.9607 736.472 95.197C748.668 96.2273 760.762 96.9485 772.754 97.3606C772.145 101.07 771.84 105.706 771.84 111.269C771.84 115.596 772.043 120.336 772.45 125.487C772.856 130.432 773.364 135.378 773.974 140.323C774.584 145.268 775.397 150.007 776.413 154.541C777.429 159.074 778.547 162.989 779.767 166.286C767.368 167.316 754.766 168.758 741.96 170.613C729.155 172.261 716.654 174.116 704.458 176.176C704.255 182.152 703.849 188.024 703.239 193.794C702.629 199.563 702.121 204.612 701.714 208.939C704.154 209.969 707.203 210.896 710.861 211.721C714.723 212.545 718.788 213.369 723.057 214.193C727.325 214.811 731.492 215.43 735.558 216.048C739.623 216.46 743.078 216.769 745.924 216.975C746.94 210.587 749.379 205.127 753.241 200.594C757.307 196.06 764.116 192.351 773.669 189.467C773.466 191.939 773.364 194.412 773.364 196.885C773.364 199.151 773.364 201.418 773.364 203.684C773.364 210.69 773.567 216.254 773.974 220.375C774.584 224.29 775.6 228.205 777.023 232.12C773.161 232.532 768.588 233.356 763.303 234.593C758.018 235.623 752.733 237.065 747.448 238.92C742.164 240.568 737.082 242.32 732.204 244.174C727.529 246.235 723.768 248.295 720.923 250.356ZM701.41 118.687C702.426 127.341 703.137 134.965 703.544 141.559C704.154 148.153 704.56 154.232 704.763 159.795L740.436 150.832C739.419 146.711 738.505 142.383 737.692 137.85C737.082 133.317 736.777 128.681 736.777 123.942C732.102 123.942 726.411 123.529 719.703 122.705C713.199 121.675 707.101 120.336 701.41 118.687Z" fill="white"/>
<path d="M585.005 266.119C586.224 261.998 587.342 256.846 588.359 250.665C589.375 244.689 590.188 238.714 590.798 232.738C591.408 226.556 591.916 220.89 592.322 215.738C592.729 210.587 592.932 206.878 592.932 204.612C592.932 192.866 592.83 181.121 592.627 169.376C592.627 157.631 592.627 145.886 592.627 134.141L588.664 129.814L554.516 144.65C554.312 149.183 554.211 155.159 554.211 162.577C554.211 169.994 554.211 177.515 554.211 185.139V213.266C554.211 226.247 556.955 233.768 562.443 235.829V240.465H508.172V235.829C510.611 234.798 512.542 232.738 513.965 229.647C515.591 226.35 516.404 221.817 516.404 216.048V134.141L512.44 129.814L478.597 144.65V213.266C478.597 226.247 481.341 233.768 486.829 235.829V240.465H430.729V235.829C433.168 234.798 435.099 232.738 436.522 229.647C438.148 226.35 438.961 221.817 438.961 216.048V108.178L427.68 103.233V99.8331C434.794 98.8028 442.518 97.4635 450.852 95.815C459.186 93.9606 466.605 92.2091 473.109 90.5607L478.597 99.8331V125.178C486.525 119.408 493.639 113.742 499.94 108.178C506.444 102.409 513.05 95.609 519.758 87.7789C523.213 91.0758 526.364 94.0636 529.21 96.7423C532.055 99.2149 534.901 101.482 537.747 103.542C540.795 105.603 543.946 107.663 547.198 109.724C550.45 111.578 554.211 113.536 558.479 115.596L556.65 123.941C564.171 118.378 570.98 112.814 577.078 107.251C583.176 101.688 589.477 95.1969 595.981 87.7789C599.436 91.0758 602.587 94.0636 605.433 96.7423C608.278 99.2149 611.124 101.482 613.97 103.542C617.019 105.603 620.169 107.663 623.421 109.724C626.674 111.578 630.434 113.536 634.702 115.596C633.889 118.481 633.178 121.572 632.568 124.869C632.162 127.959 631.755 131.978 631.349 136.923C631.145 141.868 630.942 147.947 630.739 155.159C630.536 162.37 630.434 171.334 630.434 182.049C630.434 191.115 630.434 198.636 630.434 204.612C630.637 210.381 630.84 215.12 631.044 218.829C631.247 222.538 631.552 225.629 631.958 228.102C632.365 230.368 632.771 232.532 633.178 234.592C629.113 236.035 624.946 237.992 620.677 240.465C616.612 242.938 612.445 245.719 608.177 248.81C604.111 251.901 600.25 255.095 596.591 258.392C592.932 261.689 589.68 264.882 586.834 267.973L585.005 266.119Z" fill="white"/>
<path d="M261.43 103.542C265.699 103.13 270.476 102.512 275.76 101.688C281.045 100.657 286.33 99.5241 291.615 98.2878C296.9 97.0515 301.778 95.8152 306.25 94.5788C310.721 93.1365 314.278 91.7971 316.921 90.5608C316.514 94.0637 316.108 97.2575 315.701 100.142C315.498 103.027 315.295 106.118 315.092 109.415C315.092 112.712 314.99 116.318 314.787 120.233C314.787 124.148 314.787 128.784 314.787 134.141V196.576L327.592 206.466L356.862 193.485V145.268C356.862 138.262 356.659 132.493 356.252 127.96C356.049 123.426 355.439 119.82 354.423 117.142C353.406 114.463 351.984 112.506 350.154 111.269C348.528 109.827 346.191 108.694 343.142 107.869V103.851C352.898 103.233 362.452 101.791 371.802 99.5241C381.355 97.2576 389.587 94.3728 396.498 90.8699V163.813C396.498 173.498 396.701 181.431 397.108 187.612C397.514 193.588 398.226 198.43 399.242 202.139C400.258 205.848 401.579 208.527 403.206 210.175C405.035 211.824 407.372 212.957 410.218 213.575V216.975C407.576 218.211 404.628 220.066 401.376 222.538C398.124 225.011 394.973 227.793 391.925 230.884C388.876 233.974 386.132 237.168 383.692 240.465C381.253 243.556 379.424 246.441 378.204 249.119C371.497 243.35 366.618 237.992 363.569 233.047C360.724 228.102 358.793 222.023 357.777 214.811C351.679 217.902 346.292 220.787 341.617 223.466C337.145 226.144 332.979 228.823 329.117 231.502C325.458 234.18 322.002 236.962 318.75 239.847C315.701 242.732 312.551 245.823 309.299 249.119C305.233 245.41 301.575 242.32 298.322 239.847C295.274 237.168 292.225 234.799 289.176 232.738C286.33 230.678 283.383 228.823 280.334 227.175C277.488 225.32 274.236 223.363 270.577 221.302C271.39 220.066 272.102 217.284 272.711 212.957C273.525 208.63 274.236 203.375 274.846 197.194C275.456 191.012 275.862 184.418 276.065 177.413C276.472 170.201 276.675 163.298 276.675 156.704C276.675 149.286 276.37 142.899 275.76 137.541C275.354 131.978 274.541 127.238 273.321 123.323C272.102 119.408 270.476 116.215 268.443 113.742C266.614 111.063 264.174 108.797 261.126 106.942L261.43 103.542Z" fill="white"/>
<path d="M317.902 39.8715C315.463 43.9925 313.532 47.2894 312.109 49.7621C315.158 52.2347 317.394 54.3983 318.816 56.2528C320.443 57.9012 322.882 60.0648 326.134 62.7435C329.996 58.8284 334.061 54.8104 338.33 50.6893C342.801 46.5682 347.07 42.6532 351.135 38.9442C355.2 35.2353 358.961 32.0414 362.416 29.3627C365.872 26.478 368.514 24.4174 370.343 23.1811C368.92 22.3569 366.786 21.0175 363.941 19.163C361.298 17.1025 358.453 14.9389 355.404 12.6723C352.558 10.4057 349.814 8.13914 347.171 5.87254C344.732 3.60595 342.903 1.64844 341.683 0C339.854 3.70897 337.517 7.93308 334.671 12.6723C332.028 17.4116 329.183 22.1508 326.134 26.8901C323.288 31.4233 320.544 35.7504 317.902 39.8715Z" fill="white"/>
<path d="M314.251 23.4077C311.085 28.8282 307.985 34.1012 304.953 39.228H0V23.4077H314.251ZM1147 39.228H369.646C374.259 34.923 378.638 31.0426 382.783 27.5874C384.459 26.083 386.033 24.6898 387.505 23.4077H1147V39.228Z" fill="white"/>
<path d="M162.508 277.555C161.491 257.155 160.678 237.58 160.069 218.829C159.662 200.079 159.256 183.491 158.849 169.067C158.646 154.644 158.443 143.105 158.239 134.45C158.239 125.796 158.239 121.366 158.239 121.16C157.223 108.591 150.82 99.9362 139.031 95.197C141.064 95.4031 142.995 95.5061 144.824 95.5061C146.857 95.5061 148.889 95.5061 150.922 95.5061C160.069 95.5061 168.402 95.094 175.923 94.2697C183.647 93.2395 190.66 92.2092 196.961 91.1789C203.262 90.1487 208.953 89.2214 214.035 88.3972C219.319 87.3669 224.198 86.8518 228.67 86.8518C231.109 86.8518 233.446 87.1609 235.682 87.7791C223.486 96.6394 214.035 106.324 207.327 116.833C200.823 127.135 197.57 138.777 197.57 151.759C197.57 167.007 202.55 184.315 212.51 203.684C207.835 215.636 203.973 228.514 200.924 242.32C198.079 256.125 196.656 269.931 196.656 283.736C196.656 289.712 196.859 296.615 197.266 304.445C197.875 312.069 198.892 319.59 200.315 327.008C206.412 333.602 211.799 338.753 216.474 342.462C221.352 346.171 225.722 348.953 229.584 350.807C233.446 352.662 237.003 353.898 240.255 354.516C243.711 355.134 247.065 355.649 250.317 356.061L242.39 335.662C249.301 339.577 256.212 343.286 263.122 346.789C270.033 350.292 277.147 353.383 284.465 356.061C291.782 358.74 299.405 360.801 307.332 362.243C315.462 363.891 324.101 364.716 333.248 364.716C339.346 364.716 345.647 364.51 352.151 364.098C358.859 363.685 365.871 362.964 373.189 361.934C355.302 369.146 338.431 374.297 322.576 377.388C306.925 380.685 292.087 382.333 278.062 382.333C260.175 382.333 243.609 379.758 228.365 374.606C213.323 369.455 199.298 362.449 186.289 353.589C173.484 344.935 161.695 334.838 150.922 323.299C140.352 311.966 130.596 300.015 121.652 287.445C112.912 274.67 104.985 261.792 97.8706 248.81C90.9597 235.829 84.7602 223.466 79.2721 211.721V243.247C79.2721 256.022 79.6786 266.737 80.4917 275.391C81.3047 284.046 82.6259 291.567 84.4553 297.954C86.2846 304.342 88.6221 310.008 91.4678 314.954C94.3135 319.693 97.7689 324.535 101.834 329.48C97.3624 328.244 93.3988 327.008 89.9433 325.771C86.6912 324.535 83.439 323.093 80.1868 321.444C77.1379 319.796 73.8857 317.735 70.4302 315.263C67.178 312.79 63.316 309.699 58.8443 305.99C53.3562 315.881 46.0388 324.432 36.892 331.644C27.7452 338.856 15.4479 345.038 0 350.189C6.09785 344.213 11.7892 337.414 17.074 329.79C22.3588 322.372 26.9322 314.439 30.7942 305.99C34.8594 297.336 38.01 288.476 40.2458 279.409C42.685 270.343 43.9045 261.174 43.9045 251.901C43.9045 243.247 42.7866 234.902 40.5507 226.866C38.5181 218.829 35.0627 211.102 30.1844 203.684C40.1442 184.315 45.1241 167.007 45.1241 151.759C45.1241 138.777 41.7703 127.135 35.0627 116.833C28.5583 106.324 19.2082 96.6394 7.01253 87.7791C9.04515 87.1609 11.3827 86.8518 14.0251 86.8518C18.0903 86.8518 22.6637 87.3669 27.7452 88.3972C33.03 89.2214 38.7214 90.1487 44.8192 91.1789C51.1203 92.2092 57.828 93.2395 64.9421 94.2697C72.2596 95.094 80.0851 95.5061 88.4189 95.5061C90.4515 95.5061 92.3825 95.5061 94.2118 95.5061C96.2445 95.5061 98.2771 95.4031 100.31 95.197C89.3336 99.5241 83.0324 107.148 81.4063 118.069C85.0651 127.341 89.4352 138.056 94.5167 150.213C99.8015 162.371 105.595 175.146 111.896 188.539C118.4 201.933 125.413 215.533 132.933 229.338C140.454 242.938 148.279 255.919 156.41 268.282L162.508 277.555Z" fill="white"/>
<path d="M519.369 340.07L518.911 343.865H493.857L494.36 340.482L501.995 338.333V293.574L494.177 292.202L494.635 288.682C498.841 288.011 502.605 287.493 505.927 287.128C509.249 286.762 512.435 286.579 515.482 286.579C522.767 286.579 528.406 287.676 532.399 289.871C536.422 292.065 538.433 295.692 538.433 300.752C538.433 302.763 537.915 304.79 536.879 306.832C535.873 308.875 534.38 310.749 532.399 312.456C530.448 314.163 528.086 315.504 525.312 316.479V316.525L533.542 327.909C535.706 330.926 537.367 333.136 538.525 334.538C539.683 335.94 540.918 337.129 542.228 338.104C543.539 339.049 545.108 339.796 546.937 340.344L548.446 340.802L547.76 343.911C546.023 344.52 544.194 344.825 542.274 344.825C538.891 344.825 535.873 343.728 533.221 341.533C530.6 339.308 528.192 336.23 525.998 332.298L518.729 319.314H510.773V338.104L519.369 340.07ZM512.694 290.511C511.688 290.572 511.048 290.617 510.773 290.648V315.153H519.826C522.386 314.3 524.55 312.867 526.318 310.856C528.086 308.844 528.97 306.33 528.97 303.312C528.97 300.813 528.467 298.588 527.461 296.637C526.455 294.686 524.992 293.162 523.072 292.065C521.182 290.968 518.911 290.419 516.26 290.419C514.919 290.419 513.73 290.45 512.694 290.511ZM577.112 340.07L576.472 343.865H549.36L549.863 340.482L557.498 338.333V293.391L549.68 292.019L550.138 288.499C554.252 287.889 558.047 287.402 561.522 287.036C564.996 286.67 568.456 286.487 571.9 286.487C578.788 286.487 584.335 287.722 588.542 290.191C592.748 292.629 594.851 296.927 594.851 303.083C594.851 306.589 593.875 309.728 591.925 312.502C590.005 315.275 587.429 317.439 584.198 318.994C580.967 320.518 577.493 321.28 573.774 321.28C572.951 321.28 571.869 321.249 570.528 321.188L569.202 321.142L568.379 317.348L570.803 317.302C575.71 317.18 579.367 316.083 581.775 314.01C584.183 311.907 585.387 308.814 585.387 304.729C585.387 300.493 584.198 297.033 581.821 294.351C579.474 291.638 575.847 290.282 570.94 290.282C570.178 290.282 569.279 290.328 568.242 290.419C567.236 290.48 566.581 290.526 566.276 290.556V338.287L577.112 340.07ZM635.586 344.093C632.081 344.886 627.997 345.282 623.334 345.282C617.39 345.282 612.376 344.078 608.292 341.67C604.208 339.232 601.145 335.925 599.103 331.749C597.061 327.543 596.039 322.773 596.039 317.439C596.039 311.16 597.487 305.659 600.383 300.935C603.309 296.21 607.134 292.583 611.858 290.054C616.613 287.524 621.642 286.259 626.946 286.259C630.695 286.259 634.139 286.655 637.278 287.448C640.417 288.21 643.1 289.292 645.325 290.694L644.227 305.415L640.25 304.729L638.604 295.997C637.263 294.625 635.373 293.421 632.935 292.385C630.527 291.318 627.616 290.785 624.202 290.785C620.758 290.785 617.649 291.608 614.876 293.254C612.133 294.9 609.938 297.475 608.292 300.98C606.677 304.486 605.869 308.92 605.869 314.285C605.869 318.917 606.768 323.215 608.567 327.177C610.365 331.14 612.971 334.325 616.384 336.733C619.798 339.141 623.837 340.344 628.5 340.344C630.115 340.344 631.609 340.146 632.98 339.75C634.383 339.354 635.51 338.912 636.364 338.424V324.023L625.574 322.285L626.123 318.491H651.542L650.994 321.92L645.325 323.794V340.253C642.368 342.021 639.122 343.301 635.586 344.093Z" fill="white"/>
</svg>
