<svg width="800" height="320" viewBox="0 0 800 320" fill="none" xmlns="http://www.w3.org/2000/svg">
<path d="M705.656 223.512C708.198 224.943 710.529 226.232 712.647 227.377C714.766 228.523 716.884 229.597 719.003 230.599C721.263 231.458 723.664 232.246 726.206 232.961C728.748 233.677 731.644 234.322 734.892 234.894C740.824 231.888 745.556 229.955 749.086 229.096C752.617 228.093 754.948 227.234 756.078 226.518C756.36 212.63 756.572 198.098 756.713 182.921C756.996 167.601 757.137 153.068 757.137 139.323C757.137 135.744 757.137 132.236 757.137 128.799C757.137 125.22 756.996 121.784 756.713 118.491C754.171 117.059 751.841 115.77 749.722 114.625C747.603 113.479 745.414 112.477 743.154 111.618C741.036 110.616 738.706 109.757 736.163 109.041C733.762 108.325 730.937 107.681 727.689 107.108C721.757 110.115 716.955 112.191 713.283 113.336C709.752 114.482 707.421 115.412 706.291 116.128C706.15 119.708 706.009 124.075 705.868 129.229C705.726 134.24 705.585 139.681 705.444 145.551C705.444 151.422 705.444 157.578 705.444 164.021C705.444 170.464 705.444 176.764 705.444 182.921C705.444 189.364 705.444 196.308 705.444 203.753C705.585 211.198 705.656 217.785 705.656 223.512ZM667.522 170.035C669.358 168.03 670.982 165.525 672.394 162.518C673.948 159.368 675.29 156.003 676.42 152.424C677.55 148.701 678.397 144.835 678.962 140.826C679.668 136.817 680.021 132.88 680.021 129.014C680.021 122.428 679.033 116.2 677.055 110.33C675.078 104.459 671.829 100.164 667.31 97.4435C671.688 97.1571 676.42 96.5844 681.504 95.7254C686.73 94.8663 691.956 93.7925 697.182 92.5039C702.407 91.2152 707.421 89.8551 712.223 88.4233C717.025 86.8483 721.263 85.2018 724.935 83.4836C729.596 84.1995 735.104 85.4165 741.46 87.1347C747.957 88.7096 754.383 90.3562 760.739 92.0743C767.094 93.7925 772.885 95.3674 778.111 96.7992C783.478 98.231 787.362 99.0185 789.763 99.1616C787.786 102.455 786.373 106.607 785.526 111.618C784.678 116.486 784.255 121.569 784.255 126.867C784.255 134.885 785.243 142.902 787.221 150.92C789.198 158.795 792.023 165.238 795.695 170.249C792.164 174.688 789.269 180.773 787.009 188.505C784.749 196.093 783.619 203.968 783.619 212.129C783.619 218.715 784.608 224.872 786.585 230.599C788.562 236.326 791.811 240.621 796.33 243.485C791.952 243.771 787.079 244.344 781.712 245.203C776.487 246.062 771.19 247.136 765.823 248.425C760.597 249.713 755.513 251.073 750.569 252.505C745.626 254.08 741.389 255.727 737.858 257.445C733.197 256.872 727.689 255.798 721.333 254.223C714.978 252.648 708.622 251.002 702.266 249.284C696.052 247.566 690.332 245.991 685.106 244.559C679.88 242.984 676.137 242.053 673.877 241.767C675.855 239.906 677.196 236.899 677.903 232.747C678.75 228.451 679.174 223.583 679.174 218.142C679.174 213.131 678.821 207.905 678.114 202.465C677.55 196.881 676.702 191.798 675.572 187.216C674.584 182.491 673.383 178.554 671.971 175.404C670.558 172.254 669.075 170.464 667.522 170.035Z" fill="#4C0B86"/>
<path d="M591.751 114.195C597.825 110.186 603.262 106.177 608.064 102.168C612.866 98.1594 617.81 93.4345 622.894 87.9937C625.295 90.2846 627.484 92.3607 629.462 94.222C631.439 95.9401 633.417 97.5151 635.394 98.9469C637.512 100.379 639.702 101.81 641.961 103.242C644.221 104.531 646.834 105.891 649.8 107.323C649.235 109.327 648.741 111.475 648.317 113.766C648.035 115.913 647.752 118.705 647.47 122.142C647.328 125.578 647.187 129.802 647.046 134.813C646.905 139.824 646.834 146.052 646.834 153.498C646.834 159.797 646.834 165.023 646.834 169.176C646.975 173.185 647.117 176.478 647.258 179.055C647.399 181.632 647.611 183.78 647.893 185.498C648.176 187.073 648.458 188.576 648.741 190.008C645.916 191.01 643.021 192.37 640.055 194.089C637.23 195.807 634.335 197.74 631.369 199.887C628.544 202.035 625.86 204.254 623.318 206.545C620.776 208.836 618.516 211.055 616.539 213.203L615.267 211.914C616.115 209.051 616.892 205.471 617.598 201.176C618.304 197.024 618.869 192.872 619.293 188.719C619.716 184.424 620.07 180.487 620.352 176.907C620.634 173.328 620.776 170.751 620.776 169.176C620.776 161.014 620.705 152.853 620.564 144.692C620.564 136.531 620.564 128.37 620.564 120.209L617.81 117.202L591.751 129.014V175.189C591.751 184.209 593.658 189.435 597.472 190.867V194.089H558.49V190.867C560.185 190.151 561.527 188.719 562.515 186.572C563.645 184.281 564.21 181.131 564.21 177.122V102.168L556.371 98.7321V96.3697C561.315 95.6538 566.682 94.7231 572.472 93.5777C578.263 92.2891 583.418 91.0721 587.938 89.9267L591.751 96.3697V114.195Z" fill="#4C0B86"/>
<path d="M501.938 200.961C499.254 198.957 495.935 197.095 491.98 195.377C488.026 193.659 483.93 192.227 479.693 191.082C475.597 189.793 471.571 188.791 467.617 188.075C463.803 187.359 460.626 187.001 458.083 187.001C459.213 185.14 460.202 182.563 461.049 179.27C461.897 175.833 462.532 172.182 462.956 168.317C463.521 164.308 463.874 160.227 464.015 156.075C464.298 151.923 464.439 148.128 464.439 144.692C464.439 135.958 463.874 128.728 462.744 123.001C461.755 117.13 460.767 112.549 459.778 109.256C465.851 108.11 471.36 105.891 476.303 102.598C481.387 99.3048 486.401 95.1526 491.345 90.1414C497.135 91.2868 504.268 92.2891 512.742 93.1482C521.217 93.864 529.62 94.3652 537.953 94.6515C537.529 97.2287 537.318 100.45 537.318 104.316C537.318 107.323 537.459 110.616 537.741 114.195C538.024 117.632 538.377 121.068 538.801 124.504C539.224 127.94 539.789 131.233 540.495 134.383C541.202 137.533 541.978 140.254 542.826 142.545C534.21 143.26 525.454 144.263 516.556 145.551C507.658 146.697 498.972 147.985 490.497 149.417C490.356 153.569 490.074 157.65 489.65 161.659C489.226 165.668 488.873 169.176 488.591 172.182C490.285 172.898 492.404 173.543 494.946 174.115C497.63 174.688 500.455 175.261 503.421 175.833C506.387 176.263 509.282 176.692 512.107 177.122C514.931 177.408 517.332 177.623 519.31 177.766C520.016 173.328 521.711 169.534 524.394 166.384C527.219 163.234 531.951 160.657 538.589 158.652C538.448 160.37 538.377 162.088 538.377 163.806C538.377 165.381 538.377 166.956 538.377 168.531C538.377 173.399 538.518 177.265 538.801 180.129C539.224 182.849 539.931 185.57 540.919 188.29C538.236 188.576 535.058 189.149 531.386 190.008C527.713 190.724 524.041 191.726 520.369 193.015C516.697 194.16 513.166 195.377 509.776 196.666C506.528 198.098 503.915 199.529 501.938 200.961ZM488.379 109.47C489.085 115.484 489.579 120.782 489.862 125.363C490.285 129.945 490.568 134.169 490.709 138.034L515.496 131.806C514.79 128.943 514.155 125.936 513.59 122.786C513.166 119.636 512.954 116.415 512.954 113.121C509.706 113.121 505.751 112.835 501.09 112.262C496.571 111.547 492.333 110.616 488.379 109.47Z" fill="#4C0B86"/>
<path d="M407.494 211.914C408.341 209.051 409.118 205.471 409.824 201.176C410.531 197.024 411.096 192.872 411.519 188.719C411.943 184.424 412.296 180.487 412.579 176.907C412.861 173.328 413.002 170.751 413.002 169.176C413.002 161.014 412.932 152.853 412.79 144.692C412.79 136.531 412.79 128.37 412.79 120.209L410.036 117.202L386.308 127.511C386.167 130.661 386.096 134.813 386.096 139.967C386.096 145.122 386.096 150.348 386.096 155.645V175.189C386.096 184.209 388.003 189.435 391.817 190.867V194.089H354.106V190.867C355.801 190.151 357.143 188.719 358.131 186.572C359.261 184.281 359.826 181.131 359.826 177.122V120.209L357.072 117.202L333.556 127.511V175.189C333.556 184.209 335.463 189.435 339.276 190.867V194.089H300.295V190.867C301.989 190.151 303.331 188.719 304.32 186.572C305.45 184.281 306.015 181.131 306.015 177.122V102.168L298.176 98.7321V96.3697C303.119 95.6538 308.486 94.7231 314.277 93.5777C320.068 92.2891 325.223 91.0721 329.743 89.9267L333.556 96.3697V113.981C339.064 109.972 344.008 106.034 348.386 102.168C352.906 98.1594 357.496 93.4345 362.157 87.9937C364.558 90.2846 366.747 92.3607 368.724 94.222C370.702 95.9401 372.679 97.5151 374.656 98.9469C376.775 100.379 378.964 101.81 381.224 103.242C383.484 104.531 386.097 105.891 389.063 107.323L387.791 113.121C393.017 109.256 397.749 105.39 401.986 101.524C406.223 97.6583 410.601 93.1481 415.121 87.9937C417.522 90.2846 419.711 92.3607 421.688 94.222C423.666 95.9401 425.643 97.5151 427.62 98.9469C429.739 100.379 431.928 101.81 434.188 103.242C436.448 104.531 439.061 105.891 442.027 107.323C441.462 109.327 440.967 111.475 440.544 113.766C440.261 115.913 439.979 118.705 439.696 122.142C439.555 125.578 439.414 129.802 439.273 134.813C439.131 139.824 439.061 146.052 439.061 153.498C439.061 159.797 439.061 165.023 439.061 169.176C439.202 173.185 439.343 176.478 439.484 179.055C439.626 181.632 439.837 183.78 440.12 185.498C440.402 187.073 440.685 188.576 440.967 190.008C438.143 191.01 435.247 192.37 432.281 194.089C429.456 195.807 426.561 197.74 423.595 199.887C420.77 202.035 418.087 204.254 415.545 206.545C413.002 208.836 410.742 211.055 408.765 213.203L407.494 211.914Z" fill="#4C0B86"/>
<path d="M182.656 98.9468C185.622 98.6605 188.942 98.231 192.614 97.6582C196.286 96.9424 199.958 96.1549 203.63 95.2958C207.302 94.4367 210.692 93.5777 213.799 92.7186C216.907 91.7164 219.378 90.7857 221.214 89.9266C220.932 92.3607 220.649 94.5799 220.367 96.5844C220.226 98.5889 220.084 100.737 219.943 103.027C219.943 105.318 219.873 107.824 219.731 110.544C219.731 113.265 219.731 116.486 219.731 120.209V163.592L228.629 170.464L248.968 161.444V127.94C248.968 123.072 248.826 119.063 248.544 115.913C248.403 112.764 247.979 110.258 247.273 108.397C246.566 106.535 245.578 105.175 244.307 104.316C243.177 103.314 241.553 102.526 239.434 101.954V99.1616C246.213 98.7321 252.852 97.7298 259.349 96.1549C265.987 94.5799 271.707 92.5754 276.509 90.1414V140.826C276.509 147.556 276.65 153.068 276.933 157.363C277.215 161.516 277.709 164.88 278.416 167.457C279.122 170.035 280.04 171.896 281.17 173.041C282.441 174.187 284.065 174.974 286.042 175.404V177.766C284.206 178.625 282.158 179.914 279.899 181.632C277.639 183.35 275.45 185.283 273.331 187.431C271.212 189.578 269.306 191.798 267.611 194.089C265.916 196.236 264.645 198.241 263.798 200.102C259.137 196.093 255.747 192.37 253.628 188.934C251.651 185.498 250.309 181.274 249.603 176.263C245.366 178.411 241.623 180.415 238.375 182.276C235.267 184.138 232.372 185.999 229.689 187.86C227.146 189.722 224.745 191.655 222.485 193.659C220.367 195.664 218.178 197.811 215.918 200.102C213.093 197.525 210.551 195.377 208.291 193.659C206.173 191.798 204.054 190.151 201.935 188.719C199.958 187.288 197.91 185.999 195.792 184.854C193.814 183.565 191.554 182.205 189.012 180.773C189.577 179.914 190.071 177.981 190.495 174.974C191.06 171.968 191.554 168.317 191.978 164.021C192.402 159.726 192.684 155.144 192.826 150.276C193.108 145.265 193.249 140.468 193.249 135.887C193.249 130.732 193.037 126.294 192.614 122.571C192.331 118.705 191.766 115.412 190.919 112.692C190.071 109.972 188.942 107.752 187.529 106.034C186.258 104.173 184.563 102.598 182.445 101.309L182.656 98.9468Z" fill="#4C0B86"/>
<path d="M221.896 54.7049C220.201 57.5685 218.86 59.8593 217.871 61.5775C219.989 63.2956 221.543 64.799 222.532 66.0876C223.662 67.233 225.356 68.7364 227.616 70.5977C230.3 67.8773 233.125 65.0853 236.091 62.2218C239.198 59.3582 242.164 56.6378 244.988 54.0606C247.813 51.4834 250.426 49.2642 252.827 47.4029C255.228 45.3984 257.064 43.9666 258.335 43.1075C257.347 42.5348 255.864 41.6042 253.886 40.3156C252.05 38.8838 250.073 37.3804 247.954 35.8054C245.977 34.2305 244.07 32.6555 242.234 31.0806C240.54 29.5056 239.268 28.1454 238.421 27C237.15 29.5772 235.526 32.5124 233.548 35.8054C231.712 39.0985 229.735 42.3916 227.616 45.6847C225.639 48.8346 223.732 51.8414 221.896 54.7049Z" fill="#4C0B86"/>
<path d="M219.359 43.2653C217.159 47.0317 215.005 50.6952 212.898 54.2575H1V43.2653H219.359ZM798 54.2575H257.853C261.057 51.2664 264.1 48.5703 266.979 46.1696C268.144 45.1244 269.237 44.1561 270.26 43.2653H798V54.2575Z" fill="#4C0B86"/>
<path d="M113.92 219.861C113.213 205.686 112.648 192.084 112.225 179.055C111.942 166.026 111.66 154.5 111.377 144.477C111.236 134.455 111.095 126.437 110.954 120.424C110.954 114.41 110.954 111.332 110.954 111.189C110.247 102.455 105.798 96.4413 97.6066 93.1482C99.019 93.2913 100.361 93.3629 101.632 93.3629C103.044 93.3629 104.457 93.3629 105.869 93.3629C112.225 93.3629 118.015 93.0766 123.241 92.5039C128.608 91.788 133.481 91.0721 137.859 90.3562C142.238 89.6403 146.192 88.996 149.723 88.4233C153.395 87.7074 156.785 87.3495 159.892 87.3495C161.587 87.3495 163.212 87.5642 164.765 87.9938C156.291 94.1504 149.723 100.88 145.062 108.182C140.543 115.341 138.283 123.43 138.283 132.451C138.283 143.046 141.743 155.073 148.664 168.531C145.416 176.836 142.732 185.784 140.613 195.377C138.636 204.97 137.647 214.563 137.647 224.156C137.647 228.308 137.789 233.105 138.071 238.545C138.495 243.843 139.201 249.069 140.19 254.223C144.427 258.805 148.17 262.384 151.418 264.962C154.808 267.539 157.844 269.472 160.528 270.76C163.212 272.049 165.683 272.908 167.943 273.338C170.344 273.767 172.674 274.125 174.934 274.411L169.426 260.237C174.228 262.957 179.03 265.534 183.832 267.968C188.634 270.402 193.578 272.55 198.662 274.411C203.747 276.273 209.043 277.705 214.551 278.707C220.201 279.852 226.204 280.425 232.559 280.425C236.796 280.425 241.175 280.282 245.694 279.995C250.355 279.709 255.228 279.208 260.312 278.492C247.883 283.503 236.161 287.083 225.144 289.23C214.269 291.521 203.959 292.667 194.213 292.667C181.784 292.667 170.273 290.877 159.681 287.297C149.229 283.718 139.484 278.85 130.444 272.693C121.546 266.68 113.355 259.664 105.869 251.646C98.5246 243.771 91.7452 235.467 85.5308 226.733C79.4576 217.856 73.9493 208.908 69.006 199.887C64.2039 190.867 59.8961 182.276 56.0827 174.115V196.022C56.0827 204.899 56.3652 212.344 56.9301 218.357C57.4951 224.371 58.4131 229.597 59.6843 234.035C60.9554 238.474 62.5796 242.411 64.557 245.847C66.5343 249.141 68.9353 252.505 71.7601 255.941C68.6529 255.082 65.8987 254.223 63.4977 253.364C61.2379 252.505 58.9781 251.503 56.7183 250.358C54.5997 249.212 52.3399 247.78 49.9389 246.062C47.6791 244.344 44.9955 242.196 41.8883 239.619C38.0749 246.492 32.9903 252.434 26.6346 257.445C20.2789 262.456 11.7341 266.751 1 270.331C5.23713 266.179 9.19179 261.454 12.864 256.156C16.5361 251.002 19.714 245.489 22.3975 239.619C25.2223 233.606 27.4115 227.449 28.9651 221.149C30.6599 214.849 31.5073 208.478 31.5073 202.035C31.5073 196.022 30.7305 190.223 29.1769 184.639C27.7645 179.055 25.3635 173.686 21.9738 168.531C28.8944 155.073 32.3548 143.046 32.3548 132.451C32.3548 123.43 30.0243 115.341 25.3635 108.182C20.8439 100.88 14.347 94.1504 5.8727 87.9938C7.28508 87.5642 8.90931 87.3495 10.7454 87.3495C13.5702 87.3495 16.748 87.7074 20.2789 88.4233C23.9511 88.996 27.9058 89.6403 32.1429 90.3562C36.5213 91.0721 41.1821 91.788 46.1254 92.5039C51.21 93.0766 56.6477 93.3629 62.4384 93.3629C63.8508 93.3629 65.1925 93.3629 66.4637 93.3629C67.8761 93.3629 69.2884 93.2913 70.7008 93.1482C63.074 96.1549 58.6956 101.452 57.5657 109.041C60.108 115.484 63.1446 122.929 66.6755 131.377C70.3477 139.824 74.373 148.701 78.7514 158.008C83.271 167.314 88.1437 176.764 93.3695 186.357C98.5953 195.807 104.033 204.827 109.682 213.418L113.92 219.861Z" fill="#4C0B86"/>
<path d="M361.887 263.594L361.569 266.231H344.16L344.509 263.88L349.815 262.387V231.286L344.382 230.332L344.7 227.886C347.623 227.42 350.238 227.06 352.547 226.806C354.855 226.552 357.068 226.425 359.186 226.425C364.248 226.425 368.166 227.187 370.941 228.712C373.736 230.237 375.134 232.757 375.134 236.273C375.134 237.671 374.774 239.079 374.054 240.498C373.355 241.917 372.317 243.22 370.941 244.406C369.585 245.592 367.944 246.524 366.016 247.201V247.233L371.735 255.143C373.238 257.24 374.393 258.776 375.197 259.75C376.002 260.724 376.86 261.55 377.771 262.228C378.681 262.884 379.772 263.403 381.043 263.784L382.091 264.102L381.615 266.262C380.407 266.686 379.137 266.898 377.802 266.898C375.452 266.898 373.355 266.135 371.512 264.61C369.691 263.064 368.018 260.925 366.493 258.193L361.442 249.171H355.914V262.228L361.887 263.594ZM357.248 229.157C356.55 229.199 356.105 229.231 355.914 229.252V246.28H362.204C363.983 245.687 365.487 244.692 366.715 243.294C367.944 241.896 368.558 240.149 368.558 238.052C368.558 236.315 368.208 234.769 367.51 233.414C366.811 232.059 365.794 231 364.46 230.237C363.147 229.475 361.569 229.094 359.726 229.094C358.794 229.094 357.969 229.115 357.248 229.157ZM402.01 263.594L401.565 266.231H382.727L383.076 263.88L388.381 262.387V231.158L382.949 230.205L383.267 227.759C386.126 227.336 388.762 226.997 391.177 226.743C393.591 226.489 395.995 226.361 398.388 226.361C403.175 226.361 407.029 227.219 409.952 228.935C412.875 230.629 414.336 233.615 414.336 237.893C414.336 240.329 413.658 242.51 412.303 244.438C410.968 246.365 409.179 247.869 406.934 248.949C404.689 250.008 402.275 250.537 399.691 250.537C399.119 250.537 398.367 250.516 397.435 250.474L396.514 250.442L395.942 247.805L397.626 247.773C401.036 247.689 403.577 246.926 405.25 245.486C406.923 244.025 407.76 241.875 407.76 239.037C407.76 236.093 406.934 233.689 405.282 231.826C403.651 229.941 401.131 228.998 397.721 228.998C397.192 228.998 396.567 229.03 395.847 229.094C395.148 229.136 394.693 229.168 394.481 229.189V262.355L402.01 263.594ZM442.641 266.389C440.206 266.94 437.368 267.215 434.127 267.215C429.998 267.215 426.514 266.379 423.676 264.706C420.838 263.011 418.709 260.713 417.29 257.812C415.871 254.889 415.162 251.575 415.162 247.869C415.162 243.506 416.168 239.683 418.18 236.4C420.213 233.117 422.871 230.597 426.154 228.839C429.458 227.082 432.952 226.203 436.637 226.203C439.242 226.203 441.635 226.478 443.817 227.029C445.998 227.558 447.862 228.31 449.408 229.284L448.645 239.513L445.882 239.037L444.738 232.969C443.806 232.016 442.493 231.18 440.799 230.46C439.126 229.718 437.103 229.348 434.731 229.348C432.338 229.348 430.178 229.919 428.25 231.063C426.344 232.207 424.819 233.996 423.676 236.432C422.553 238.868 421.992 241.949 421.992 245.677C421.992 248.896 422.617 251.882 423.866 254.635C425.116 257.388 426.927 259.602 429.299 261.275C431.671 262.948 434.477 263.784 437.717 263.784C438.84 263.784 439.877 263.647 440.831 263.371C441.805 263.096 442.588 262.789 443.181 262.45V252.443L435.684 251.236L436.065 248.599H453.728L453.347 250.982L449.408 252.284V263.721C447.354 264.949 445.098 265.839 442.641 266.389Z" fill="#4C0B86"/>
</svg>
